<?xml version="1.0" encoding="UTF-8"?>
<svg width="200" height="200" viewBox="0 0 200 200" xmlns="http://www.w3.org/2000/svg">
  <defs>
    <linearGradient id="grad6" x1="0%" y1="0%" x2="100%" y2="100%">
      <stop offset="0%" style="stop-color:#ff9a9e;stop-opacity:1" />
      <stop offset="100%" style="stop-color:#fecfef;stop-opacity:1" />
    </linearGradient>
  </defs>
  
  <!-- Background circle -->
  <circle cx="100" cy="100" r="95" fill="#16213e"/>
  
  <!-- Hexagon shape -->
  <polygon points="100,30 150,65 150,135 100,170 50,135 50,65" 
           fill="url(#grad6)" stroke="white" stroke-width="3"/>
  
  <!-- Inner fitness elements -->
  <g fill="#16213e">
    <!-- Central dumbbell -->
    <rect x="85" y="95" width="30" height="10" rx="5"/>
    <rect x="82" y="90" width="8" height="20" rx="2"/>
    <rect x="110" y="90" width="8" height="20" rx="2"/>
    
    <!-- Heartbeat line -->
    <g stroke="#16213e" stroke-width="3" fill="none">
      <path d="M 60 75 L 75 75 L 80 65 L 90 85 L 100 60 L 110 90 L 120 70 L 125 75 L 140 75"/>
    </g>
    
    <!-- Accent dots -->
    <circle cx="70" cy="120" r="3"/>
    <circle cx="130" cy="120" r="3"/>
    <circle cx="100" cy="140" r="3"/>
  </g>
</svg>