<?xml version="1.0" encoding="UTF-8"?>
<svg width="200" height="200" viewBox="0 0 200 200" xmlns="http://www.w3.org/2000/svg">
  <defs>
    <linearGradient id="grad10" x1="0%" y1="0%" x2="100%" y2="100%">
      <stop offset="0%" style="stop-color:#667eea;stop-opacity:1" />
      <stop offset="33%" style="stop-color:#764ba2;stop-opacity:1" />
      <stop offset="66%" style="stop-color:#f093fb;stop-opacity:1" />
      <stop offset="100%" style="stop-color:#f5576c;stop-opacity:1" />
    </linearGradient>
  </defs>
  
  <!-- Background -->
  <rect width="200" height="200" fill="#0f0f23"/>
  
  <!-- Geometric pattern -->
  <g fill="url(#grad10)">
    <!-- Central hexagon -->
    <polygon points="100,60 130,80 130,120 100,140 70,120 70,80"/>
    
    <!-- Connecting triangles -->
    <polygon points="100,60 130,80 115,50"/>
    <polygon points="130,80 160,100 130,120"/>
    <polygon points="130,120 115,150 100,140"/>
    <polygon points="100,140 70,120 85,150"/>
    <polygon points="70,120 40,100 70,80"/>
    <polygon points="70,80 85,50 100,60"/>
  </g>
  
  <!-- Inner connections -->
  <g stroke="white" stroke-width="2" fill="none" opacity="0.6">
    <polygon points="100,80 115,95 100,110 85,95"/>
    <line x1="100" y1="80" x2="100" y2="110"/>
    <line x1="85" y1="95" x2="115" y2="95"/>
  </g>
  
  <!-- Outer accent dots -->
  <g fill="#f5576c">
    <circle cx="100" cy="30" r="4"/>
    <circle cx="170" cy="100" r="4"/>
    <circle cx="100" cy="170" r="4"/>
    <circle cx="30" cy="100" r="4"/>
  </g>
</svg>