<?xml version="1.0" encoding="UTF-8"?>
<svg width="200" height="200" viewBox="0 0 200 200" xmlns="http://www.w3.org/2000/svg">
  <defs>
    <linearGradient id="grad5" x1="0%" y1="100%" x2="0%" y2="0%">
      <stop offset="0%" style="stop-color:#667eea;stop-opacity:1" />
      <stop offset="50%" style="stop-color:#764ba2;stop-opacity:1" />
      <stop offset="100%" style="stop-color:#f093fb;stop-opacity:1" />
    </linearGradient>
  </defs>
  
  <!-- Background -->
  <rect width="200" height="200" fill="#1a1a2e"/>
  
  <!-- Mountain peaks -->
  <g fill="url(#grad5)">
    <!-- Main peak -->
    <polygon points="100,40 140,140 60,140"/>
    <!-- Left peak -->
    <polygon points="60,70 90,140 30,140"/>
    <!-- Right peak -->
    <polygon points="140,60 170,140 110,140"/>
  </g>
  
  <!-- Peak highlights -->
  <g fill="white" opacity="0.8">
    <polygon points="100,40 115,65 85,65"/>
    <polygon points="60,70 70,85 50,85"/>
    <polygon points="140,60 150,75 130,75"/>
  </g>
  
  <!-- Star at main peak -->
  <g fill="white">
    <polygon points="100,35 102,41 108,41 103,45 105,51 100,47 95,51 97,45 92,41 98,41"/>
  </g>
</svg>